<svg viewBox="0 0 37 37" fill="none" xmlns="http://www.w3.org/2000/svg">
<path fill-rule="evenodd" clip-rule="evenodd" d="M8 2H29C32.3137 2 35 4.68629 35 8V29C35 32.3137 32.3137 35 29 35H8C4.68629 35 2 32.3137 2 29V8C2 4.68629 4.68629 2 8 2ZM0 8C0 3.58172 3.58172 0 8 0H29C33.4183 0 37 3.58172 37 8V29C37 33.4183 33.4183 37 29 37H8C3.58172 37 0 33.4183 0 29V8ZM8.5 9C7.67157 9 7 9.67157 7 10.5C7 11.3284 7.67157 12 8.5 12H29.5C30.3284 12 31 11.3284 31 10.5C31 9.67157 30.3284 9 29.5 9H8.5ZM7 18.5C7 17.6716 7.67157 17 8.5 17H26.5C27.3284 17 28 17.6716 28 18.5C28 19.3284 27.3284 20 26.5 20H8.5C7.67157 20 7 19.3284 7 18.5ZM8.5 25C7.67157 25 7 25.6716 7 26.5C7 27.3284 7.67157 28 8.5 28H28.5C29.3284 28 30 27.3284 30 26.5C30 25.6716 29.3284 25 28.5 25H8.5Z" class="primary"/>
</svg>
