<svg viewBox="0 0 100 100" fill="none" xmlns="http://www.w3.org/2000/svg">
<g clip-path="url(#clip0_67_2)">
<path d="M52.1651 17.75L86.8061 77.75C87.7683 79.4167 86.5655 81.5 84.641 81.5H15.359C13.4345 81.5 12.2317 79.4167 13.1939 77.75L47.8349 17.75C48.7972 16.0833 51.2028 16.0833 52.1651 17.75Z" class="primary-stroke" stroke-width="5"/>
<path d="M44.4141 40.3835C44.1907 37.4795 46.4868 35 49.3994 35H50.6006C53.5132 35 55.8093 37.4795 55.5859 40.3835L54.4724 54.8584C54.2927 57.1954 52.3439 59 50 59V59C47.6561 59 45.7073 57.1954 45.5276 54.8584L44.4141 40.3835Z" class="primary" />
<circle cx="50" cy="68" r="5" class="primary" />
</g>
<defs>
<clipPath id="clip0_67_2">
<rect width="100" height="100" fill="white"/>
</clipPath>
</defs>
</svg>
