<svg
    viewBox="0 0 100 100"
    fill="none"
    xmlns="http://www.w3.org/2000/svg"
>
    <path
    d="M68.5 14.526C62.9676 11.6349 56.6747 10 50 10C27.9086 10 10 27.9086 10 50C10 72.0914 27.9086 90 50 90C72.0914 90 90 72.0914 90 50C90 41.8727 88.6642 35.3116 84.5 29"
    class="secondary-stroke"
    stroke-width="6"
    />
    <path
    d="M87.2548 18.6066C89.2075 16.654 89.2075 13.4882 87.2548 11.5355C85.3022 9.58291 82.1364 9.58291 80.1838 11.5355L45.5355 46.1838C43.5829 48.1364 43.5829 51.3022 45.5355 53.2548C47.4882 55.2075 50.654 55.2075 52.6066 53.2548L87.2548 18.6066Z"
    class="primary"
    />
    <path
    d="M24.1603 82.3301C25.541 79.9387 24.7216 76.8807 22.3301 75.5C19.9387 74.1193 16.8807 74.9387 15.5 77.3301L10.5 85.9904C9.11929 88.3818 9.93866 91.4398 12.3301 92.8205C14.7216 94.2012 17.7795 93.3818 19.1603 90.9904L24.1603 82.3301Z"
    class="primary"
    />
    <path
    d="M75.5001 82.3301C74.1193 79.9387 74.9387 76.8807 77.3302 75.5C79.7216 74.1193 82.7796 74.9387 84.1603 77.3301L89.1603 85.9904C90.541 88.3818 89.7216 91.4398 87.3302 92.8205C84.9387 94.2012 81.8808 93.3818 80.5001 90.9904L75.5001 82.3301Z"
    class="primary"
    />
</svg>
