<svg
      viewBox="0 0 95 95"
      fill="none"
      xmlns="http://www.w3.org/2000/svg"
    >
      <path
        fill-rule="evenodd"
        clip-rule="evenodd"
        d="M43 0C40.2386 0 38 2.23858 38 5V13.2862C38 15.1424 36.7629 16.759 35.0486 17.4706C33.3335 18.1825 31.3382 17.9032 30.0252 16.5902L24.1655 10.7304C22.2129 8.77782 19.047 8.77782 17.0944 10.7304L10.7304 17.0944C8.77783 19.047 8.77782 22.2128 10.7304 24.1655L16.5902 30.0252C17.9032 31.3382 18.1825 33.3335 17.4706 35.0486C16.759 36.7629 15.1424 38 13.2862 38H5C2.23857 38 0 40.2386 0 43V52C0 54.7614 2.23858 57 5 57H13.2862C15.1424 57 16.759 58.2371 17.4706 59.9514C18.1825 61.6665 17.9032 63.6618 16.5902 64.9748L10.7304 70.8345C8.77783 72.7871 8.77783 75.953 10.7304 77.9056L17.0944 84.2695C19.047 86.2222 22.2129 86.2222 24.1655 84.2695L30.0252 78.4098C31.3382 77.0968 33.3335 76.8175 35.0486 77.5294C36.7629 78.241 38 79.8576 38 81.7138V90C38 92.7614 40.2386 95 43 95H52C54.7614 95 57 92.7614 57 90V81.7138C57 79.8576 58.2371 78.241 59.9514 77.5294C61.6665 76.8175 63.6618 77.0968 64.9748 78.4098L70.8345 84.2695C72.7871 86.2222 75.953 86.2222 77.9056 84.2695L84.2696 77.9056C86.2222 75.953 86.2222 72.7871 84.2696 70.8345L78.4098 64.9748C77.0968 63.6618 76.8175 61.6665 77.5294 59.9514C78.241 58.2371 79.8576 57 81.7138 57H90C92.7614 57 95 54.7614 95 52V43C95 40.2386 92.7614 38 90 38H81.7138C79.8576 38 78.241 36.7629 77.5294 35.0486C76.8175 33.3335 77.0968 31.3382 78.4098 30.0252L84.2695 24.1655C86.2222 22.2129 86.2222 19.047 84.2696 17.0944L77.9056 10.7304C75.953 8.77782 72.7871 8.77782 70.8345 10.7304L64.9748 16.5902C63.6618 17.9032 61.6665 18.1825 59.9514 17.4706C58.2371 16.759 57 15.1424 57 13.2862V5C57 2.23857 54.7614 0 52 0H43ZM47 62C55.2843 62 62 55.2843 62 47C62 38.7157 55.2843 32 47 32C38.7157 32 32 38.7157 32 47C32 55.2843 38.7157 62 47 62Z"
        class="primary"
      />
    </svg>
