<svg viewBox="0 0 100 100" fill="none" xmlns="http://www.w3.org/2000/svg">
<path d="M48.1906 50.9515L7 30C7 26.6863 9.68629 24 13 24H87C90.3137 24 93 26.6863 93 30L52.7649 50.9306C51.3329 51.6756 49.6294 51.6834 48.1906 50.9515Z" class="primary" />
<path fill-rule="evenodd" clip-rule="evenodd" d="M88 26H12C9.79086 26 8 27.7909 8 30V71C8 73.2091 9.79086 75 12 75H88C90.2091 75 92 73.2091 92 71V30C92 27.7909 90.2091 26 88 26ZM12 22C7.58172 22 4 25.5817 4 30V71C4 75.4183 7.58172 79 12 79H88C92.4183 79 96 75.4183 96 71V30C96 25.5817 92.4183 22 88 22H12Z" class="secondary"/>
</svg>
