<svg viewBox="0 0 30 34" fill="none" xmlns="http://www.w3.org/2000/svg">
<path fill-rule="evenodd" clip-rule="evenodd" d="M20 7C20 9.76142 17.7614 12 15 12C12.2386 12 10 9.76142 10 7C10 4.23858 12.2386 2 15 2C17.7614 2 20 4.23858 20 7ZM22 7C22 10.866 18.866 14 15 14C11.134 14 8 10.866 8 7C8 3.13401 11.134 0 15 0C18.866 0 22 3.13401 22 7ZM0.186723 21.9115C-0.43809 17.7461 2.78798 14 7 14L8.69408 15.3764C12.3681 18.3616 17.6319 18.3616 21.3059 15.3764L23 14C27.212 14 30.4381 17.7461 29.8133 21.9115L28 34H15H2L0.186723 21.9115ZM22.5671 16.9287L23.6566 16.0434C26.3158 16.3984 28.2457 18.8792 27.8354 21.6148L26.2776 32H15H3.72237L2.1646 21.6148C1.75425 18.8792 3.68425 16.3984 6.34337 16.0434L7.43289 16.9287C11.8417 20.5108 18.1583 20.5108 22.5671 16.9287Z" class="primary" />
</svg>
