<svg viewBox="0 0 30 34" fill="none" xmlns="http://www.w3.org/2000/svg">
<g clip-path="url(#clip0_1210_2)">
<path fill-rule="evenodd" clip-rule="evenodd" d="M20 7C20 9.76142 17.7614 12 15 12C12.2386 12 10 9.76142 10 7C10 4.23858 12.2386 2 15 2C17.7614 2 20 4.23858 20 7ZM22 7C22 10.866 18.866 14 15 14C11.134 14 8.00001 10.866 8.00001 7C8.00001 3.13401 11.134 0 15 0C18.866 0 22 3.13401 22 7ZM0.186737 21.9115C-0.438076 17.7461 2.78799 14 7.00001 14L8.69409 15.3764C12.3681 18.3616 17.6319 18.3616 21.3059 15.3764L23 14C27.212 14 30.4381 17.7461 29.8133 21.9115L28 34H15H2.00001L0.186737 21.9115Z" class="primary"/>
</g>
<defs>
<clipPath id="clip0_1210_2">
<rect width="30" height="34" fill="white"/>
</clipPath>
</defs>
</svg>
