<svg viewBox="0 0 100 100" fill="none" xmlns="http://www.w3.org/2000/svg">
<g clip-path="url(#clip0_50_26)">
<rect x="37.4223" y="-0.249329" width="35" height="15.4987" rx="5" transform="rotate(60 37.4223 -0.249329)" class="secondary"/>
<path d="M24.1295 16.8541C24.5304 16.2305 25.4468 16.2446 25.8282 16.8803L36.3943 34.4906C36.7927 35.1544 37.0314 35.9018 37.0917 36.6736L37.9713 47.9348C38.615 56.1739 43.2887 63.5626 50.4576 67.6742L56.889 71.3628C57.6179 71.7809 58.2297 72.3759 58.6678 73.0928L68.0702 88.4786C68.4774 89.1449 67.9979 90 67.2169 90L56.2122 90C51.9415 90 47.8732 88.1795 45.0274 84.995L30.5442 68.7875C29.1953 67.2781 28.166 65.5113 27.5181 63.5936L18.3107 36.3396C16.8504 32.0172 17.4367 27.2651 19.9039 23.4272L24.1295 16.8541Z" class="primary"/>
<rect x="70.4223" y="56" width="35" height="15.4987" rx="5" transform="rotate(60 70.4223 56)" class="secondary" />
</g>
<defs>
<clipPath id="clip0_50_26">
<rect width="100" height="100" fill="white"/>
</clipPath>
</defs>
</svg>
