<svg viewBox="0 0 100 100" fill="none" xmlns="http://www.w3.org/2000/svg">
<g clip-path="url(#clip0_26_16)">
<rect x="37.6902" y="4.4827" width="31" height="11.4987" rx="3" transform="rotate(60 37.6902 4.4827)" stroke="#A4A4A4" stroke-width="4"/>
<path d="M56.2123 87.9995C52.6266 87.9995 49.2053 86.5195 46.7527 83.9178L46.5187 83.6628L32.0357 67.4544C30.9397 66.228 30.0871 64.8056 29.5221 63.263L29.4134 62.9536L20.205 35.6994C18.9791 32.0705 19.4182 28.0922 21.3906 24.8233L21.5865 24.5083L24.9415 19.2899L34.6791 35.5193C34.8881 35.8677 35.0244 36.2546 35.0794 36.656L35.0972 36.8295L35.9775 48.0904C36.6508 56.7106 41.4087 64.469 48.7443 68.9826L49.4629 69.4089L55.8936 73.098C56.2763 73.3174 56.6059 73.6177 56.8582 73.9777L56.9609 74.136L65.4338 87.999L56.2123 87.9995Z" stroke="#A4A4A4" stroke-width="4"/>
<rect x="70.6902" y="60.7321" width="31" height="11.4987" rx="3" transform="rotate(60 70.6902 60.7321)" stroke="#A4A4A4" stroke-width="4"/>
<circle cx="36.8691" cy="60.8691" r="19.8691" class="primary" />
<path fill-rule="evenodd" clip-rule="evenodd" d="M30.3207 49.4861C29.9302 49.0956 29.297 49.0956 28.9065 49.4861L25.2243 53.1683C24.8338 53.5588 24.8338 54.192 25.2243 54.5825L31.1319 60.4901C31.5224 60.8806 31.5224 61.5137 31.1319 61.9043L25.0289 68.0073C24.6384 68.3978 24.6384 69.031 25.0289 69.4215L28.5786 72.9712C28.9691 73.3617 29.6022 73.3617 29.9928 72.9712L36.0958 66.8682C36.4863 66.4776 37.1195 66.4776 37.51 66.8682L43.4175 72.7757C43.808 73.1662 44.4412 73.1662 44.8317 72.7757L48.5139 69.0935C48.9044 68.7029 48.9044 68.0698 48.5139 67.6793L42.6064 61.7717C42.2159 61.3812 42.2159 60.7481 42.6064 60.3575L48.7094 54.2545C49.1 53.864 49.1 53.2308 48.7094 52.8403L45.1597 49.2906C44.7692 48.9001 44.1361 48.9001 43.7455 49.2906L37.6425 55.3936C37.252 55.7842 36.6188 55.7842 36.2283 55.3936L30.3207 49.4861Z" fill="white"/>
</g>
<defs>
<clipPath id="clip0_26_16">
<rect width="100" height="100" fill="white"/>
</clipPath>
</defs>
</svg>
