<svg viewBox="0 0 100 100" fill="none" xmlns="http://www.w3.org/2000/svg">
<rect width="100" height="100" fill="white"/>
<path fill-rule="evenodd" clip-rule="evenodd" d="M34.8249 12.3892C35.1333 9.88292 37.2622 8 39.7874 8H60.9401C63.4943 8 65.6379 9.92512 65.9114 12.4646L71.8498 67.6066C72.1681 70.5628 69.8518 73.142 66.8785 73.142H61.6147C61.6387 72.8375 61.651 72.5297 61.651 72.2191C61.651 69.5357 60.7372 67.0657 59.2039 65.1032C61.2464 64.3128 62.6212 62.2226 62.3699 59.9003L59.481 33.2037C59.2063 30.6653 57.0632 28.7416 54.51 28.7416H46.3991C43.875 28.7416 41.7467 30.6229 41.4369 33.1279L38.1353 59.8245C37.8567 62.0777 39.1164 64.1306 41.045 64.9997C39.4624 66.9785 38.5161 69.4883 38.5161 72.2191C38.5161 72.5297 38.5284 72.8375 38.5524 73.142H33.0007C29.997 73.142 27.6712 70.5124 28.0382 67.5312L34.8249 12.3892Z" class="primary" />
<circle cx="49.868" cy="72" r="7" class="secondary" />
<rect x="46" y="75" width="8" height="18" rx="3" class="secondary" />
</svg>
