<svg viewBox="0 0 24 24" fill="none" xmlns="http://www.w3.org/2000/svg">
<path fill-rule="evenodd" clip-rule="evenodd" d="M9.91926 7.92937C9.91926 4.65467 12.5739 2 15.8486 2C19.1233 2 21.778 4.65467 21.778 7.92937C21.778 11.2041 19.1233 13.8587 15.8486 13.8587C12.5739 13.8587 9.91926 11.2041 9.91926 7.92937ZM15.8486 0C11.4694 0 7.91926 3.5501 7.91926 7.92937C7.91926 9.7586 8.53867 11.4432 9.57918 12.7848L0.292908 22.071L1.70712 23.4852L10.9934 14.1989C12.335 15.2394 14.0195 15.8587 15.8486 15.8587C20.2279 15.8587 23.778 12.3086 23.778 7.92937C23.778 3.5501 20.2279 0 15.8486 0Z" class="primary" />
</svg>
