<svg viewBox="0 0 52 69" fill="none" xmlns="http://www.w3.org/2000/svg">
<path d="M45.3604 21.0088C49.0589 21.1963 52 24.2549 52 28V62L51.9912 62.3604C51.8097 65.9395 48.9395 68.8097 45.3604 68.9912L45 69H7L6.63965 68.9912C3.06046 68.8097 0.190277 65.9395 0.00878906 62.3604L0 62V28C0 24.2549 2.94111 21.1963 6.63965 21.0088L7 21H16V26H7C5.89543 26 5 26.8954 5 28V62C5 63.1046 5.89543 64 7 64H45C46.1046 64 47 63.1046 47 62V28C47 26.8954 46.1046 26 45 26H35V21H45L45.3604 21.0088Z" fill="black"/>
<path d="M27.4142 0.585787C26.6332 -0.195262 25.3669 -0.195263 24.5858 0.585786L11.8579 13.3137C11.0768 14.0947 11.0768 15.3611 11.8579 16.1421C12.6389 16.9232 13.9053 16.9232 14.6863 16.1421L26 4.82843L37.3137 16.1421C38.0948 16.9232 39.3611 16.9232 40.1422 16.1421C40.9232 15.3611 40.9232 14.0948 40.1422 13.3137L27.4142 0.585787ZM26 42.5L28 42.5L28 2L26 2L24 2L24 42.5L26 42.5Z" fill="black"/>
</svg>
