<svg viewBox="0 0 57 58" fill="none" xmlns="http://www.w3.org/2000/svg">
<path d="M6.13004 18.6575H50.87C53.4023 18.6575 55.2973 20.9808 54.7883 23.4615L48.7651 52.8178C48.3595 54.7945 46.545 56.1596 44.5332 56.0015L28.9702 54.7781C28.6572 54.7535 28.3428 54.7535 28.0298 54.7781L12.4668 56.0015C10.455 56.1596 8.6405 54.7945 8.23491 52.8178L2.21167 23.4615C1.7027 20.9808 3.59774 18.6575 6.13004 18.6575Z" class="primary-stroke" stroke-width="2"/>
<rect width="4" height="30.9643" rx="2" transform="matrix(0.99209 -0.125528 0.200592 0.979675 9.2948 22.9521)" class="secondary" />
<rect width="4" height="30.9641" rx="2" transform="matrix(0.992097 0.125477 -0.200511 0.979691 44.1572 22.4491)" class="secondary" />
<rect x="26.8715" y="22.1383" width="4" height="28.8051" rx="2" class="secondary"/>
<path fill-rule="evenodd" clip-rule="evenodd" d="M37.0357 0C39.0673 0 40.7143 1.64698 40.7143 3.67864C40.7143 5.71031 42.3613 7.35729 44.3929 7.35729L54.0571 7.35728C55.6824 7.35728 57 8.67487 57 10.3002C57 11.9255 55.6824 13.2431 54.0571 13.2431H2.94292C1.31759 13.2431 0 11.9255 0 10.3002C0 8.67487 1.31759 7.35728 2.94292 7.35728L12.6071 7.35729C14.6387 7.35729 16.2857 5.71031 16.2857 3.67864C16.2857 1.64698 17.9327 0 19.9644 0H37.0357ZM22.5643 2.20718C21.3453 2.20718 20.3571 3.19537 20.3571 4.41437C20.3571 5.63336 21.3453 6.62156 22.5643 6.62156H34.4356C35.6546 6.62156 36.6428 5.63336 36.6428 4.41437C36.6428 3.19537 35.6546 2.20718 34.4356 2.20718H22.5643Z" class="primary" />
</svg>
